<svg xmlns="http://www.w3.org/2000/svg" version="1.1"  width="1940.06875" height="639.9133680555556" viewBox="-170.0 -170.11921296296296 1940.06875 639.9133680555556" transform="matrix(1 0 0 -1 0 0)">
    <line x1="0.0" y1="0.0" x2="400.0" y2="0.0" stroke="#D5DBF8" stroke-width="4.47213595499958"/>
	<line x1="400.0" y1="0.0" x2="800.0" y2="0.0" stroke="#D5DBF8" stroke-width="4.47213595499958"/>
	<line x1="800.0" y1="0.0" x2="1200.0" y2="0.0" stroke="#D5DBF8" stroke-width="4.47213595499958"/>
	<line x1="1200.0" y1="0.0" x2="1600.0" y2="0.0" stroke="#D5DBF8" stroke-width="4.47213595499958"/>
	<line x1="400.0" y1="300.0" x2="800.0" y2="300.0" stroke="#D5DBF8" stroke-width="4.47213595499958"/>
	<line x1="800.0" y1="300.0" x2="1200.0" y2="300.0" stroke="#D5DBF8" stroke-width="4.47213595499958"/>
	<line x1="400.0" y1="0.0" x2="400.0" y2="300.0" stroke="#D5DBF8" stroke-width="3.872983346207417"/>
	<line x1="800.0" y1="0.0" x2="800.0" y2="300.0" stroke="#D5DBF8" stroke-width="3.872983346207417"/>
	<line x1="1200.0" y1="0.0" x2="1200.0" y2="300.0" stroke="#D5DBF8" stroke-width="3.872983346207417"/>
	<line x1="0.0" y1="0.0" x2="400.0" y2="300.0" stroke="#D5DBF8" stroke-width="5.477225575051661"/>
	<line x1="400.0" y1="300.0" x2="800.0" y2="0.0" stroke="#D5DBF8" stroke-width="5.477225575051661"/>
	<line x1="800.0" y1="0.0" x2="1200.0" y2="300.0" stroke="#D5DBF8" stroke-width="5.477225575051661"/>
	<line x1="1200.0" y1="300.0" x2="1600.0" y2="0.0" stroke="#D5DBF8" stroke-width="5.477225575051661"/>
	<line x1="0.0" y1="0.0" x2="403.90625" y2="-18.576388888888914" stroke="#005005" stroke-width="4.47213595499958"/>
	<line x1="403.90625" y1="-18.576388888888914" x2="807.8125" y2="-23.842592592592627" stroke="#005005" stroke-width="4.47213595499958"/>
	<line x1="807.8125" y1="-23.842592592592627" x2="1210.78125" y2="-17.326388888888914" stroke="#005005" stroke-width="4.47213595499958"/>
	<line x1="1210.78125" y1="-17.326388888888914" x2="1613.75" y2="0.0" stroke="#005005" stroke-width="4.47213595499958"/>
	<line x1="411.28743489583337" y1="281.4236111111111" x2="808.2666015625" y2="274.9074074074074" stroke="#BB2727" stroke-width="4.47213595499958"/>
	<line x1="808.2666015625" y1="274.9074074074074" x2="1204.6207682291667" y2="282.6736111111111" stroke="#BB2727" stroke-width="4.47213595499958"/>
	<line x1="403.90625" y1="-18.576388888888914" x2="411.28743489583337" y2="281.4236111111111" stroke="#005005" stroke-width="3.872983346207417"/>
	<line x1="807.8125" y1="-23.842592592592627" x2="808.2666015625" y2="274.9074074074074" stroke="#BB2727" stroke-width="3.872983346207417"/>
	<line x1="1210.78125" y1="-17.326388888888914" x2="1204.6207682291667" y2="282.6736111111111" stroke="#005005" stroke-width="3.872983346207417"/>
	<line x1="0.0" y1="0.0" x2="411.28743489583337" y2="281.4236111111111" stroke="#BB2727" stroke-width="5.477225575051661"/>
	<line x1="411.28743489583337" y1="281.4236111111111" x2="807.8125" y2="-23.842592592592627" stroke="#005005" stroke-width="5.477225575051661"/>
	<line x1="807.8125" y1="-23.842592592592627" x2="1204.6207682291667" y2="282.6736111111111" stroke="#005005" stroke-width="5.477225575051661"/>
	<line x1="1204.6207682291667" y1="282.6736111111111" x2="1613.75" y2="0.0" stroke="#BB2727" stroke-width="5.477225575051661"/>
	<text x="202.4125576817442" y="0.7012460609564997" dx="0" dy="0" fill="#005005" transform="matrix(0.9989440505400957 -0.045943268174420196 -0.045943268174420196 -0.9989440505400957 0.24595496679666234 10.701246060956342)" font-family="sans-serif" font-size="14px">
    σ stress = 781.5951
</text>
	<text x="605.9897457518431" y="-11.210340603500912" dx="0" dy="0" fill="#005005" transform="matrix(0.9999150137239858 -0.01303707518430493 -0.01303707518430493 -0.9999150137239858 -0.09464924149528783 -14.519394605616474)" font-family="sans-serif" font-size="14px">
    σ stress = 781.2777
</text>
	<text x="1009.1351911988021" y="-10.58579790875367" dx="0" dy="0" fill="#005005" transform="matrix(0.9998692831987098 0.016168380119795937 0.016168380119795937 -0.9998692831987098 0.3030661287229279 -37.48629343943079)" font-family="sans-serif" font-size="14px">
    σ stress = 593.7925
</text>
	<text x="1411.836053348151" y="1.3275747049217586" dx="0" dy="0" fill="#005005" transform="matrix(0.9990769149366215 0.04295716518489885 0.04295716518489885 -0.9990769149366215 1.2462159268902544 -57.9945506122093)" font-family="sans-serif" font-size="14px">
    σ stress = 594.0502
</text>
	<text x="609.9411408477255" y="288.1641623568558" dx="0" dy="0" fill="#BB2727" transform="matrix(0.9998653097596567 -0.016412261855872995 -0.016412261855872995 -0.9998653097596567 4.81157880893506 586.3000255336882)" font-family="sans-serif" font-size="14px">
    σ stress = -604.1242
</text>
	<text x="1006.2477814854192" y="288.788590167803" dx="0" dy="0" fill="#BB2727" transform="matrix(0.9998080908543804 0.019590341041417905 0.019590341041417905 -0.9998080908543804 -5.464358818231025 557.8090219525327)" font-family="sans-serif" font-size="14px">
    σ stress = -729.1064
</text>
	<text x="397.5998678461001" y="131.6695761708943" dx="0" dy="0" fill="#005005" transform="matrix(0.02459650597831954 0.9996974601816584 0.9996974601816584 -0.02459650597831954 256.190559438406 -262.5713903659648)" font-family="sans-serif" font-size="14px">
    σ stress = 0.0969
</text>
	<text x="798.0395623333095" y="125.54760744214944" dx="0" dy="0" fill="#BB2727" transform="matrix(0.0015200034742063537 0.999998844794052 0.999998844794052 -0.0015200034742063537 671.2790770172022 -672.3002001916204)" font-family="sans-serif" font-size="14px">
    σ stress = -333.333
</text>
	<text x="1197.7031168666506" y="132.4683050013106" dx="0" dy="0" fill="#005005" transform="matrix(-0.020530610980048682 0.9997892247932991 0.9997892247932991 0.020530610980048682 1089.852309661689 -1067.7020209804846)" font-family="sans-serif" font-size="14px">
    σ stress = 0.0675
</text>
	<text x="199.99665388767383" y="148.96472462377483" dx="0" dy="0" fill="#BB2727" transform="matrix(0.8252919068219278 0.564706356024285 0.564706356024285 -0.8252919068219278 -49.18029277574257 158.96472462377488)" font-family="sans-serif" font-size="14px">
    σ stress = -338.2421
</text>
	<text x="615.6501745892095" y="136.7143639293879" dx="0" dy="0" fill="#005005" transform="matrix(0.792385467012867 -0.610020714129283 -0.610020714129283 -0.792385467012867 211.2165173967215 620.6041981956704)" font-family="sans-serif" font-size="14px">
    σ stress = 60.7893
</text>
	<text x="1000.103512428563" y="137.32940483930747" dx="0" dy="0" fill="#005005" transform="matrix(0.7913895580048257 0.6113121686020381 0.6113121686020381 -0.7913895580048257 124.68089948350458 -365.36498517306745)" font-family="sans-serif" font-size="14px">
    σ stress = 217.0464
</text>
	<text x="1414.8697369184044" y="149.56408537343538" dx="0" dy="0" fill="#BB2727" transform="matrix(0.8227279817879826 -0.5684352803820969 -0.5684352803820969 -0.8227279817879826 335.8343165749723 1076.8765190900444)" font-family="sans-serif" font-size="14px">
    σ stress = -494.5523
</text>
	<g >
    <circle cx="0.0" cy="0.0" r="5" stroke-width="4" stroke="#354595" fill="#FFFFFF"/>
<text x="5.0" y="5.0" dx="0" dy="0" fill="#354595" transform="matrix(1.0 0.0 0.0 -1.0 0.0 10.0)" font-family="sans-serif" font-size="14px">
    1
</text>
</g>
	<g >
    <circle cx="403.90625" cy="-18.576388888888914" r="5" stroke-width="4" stroke="#354595" fill="#FFFFFF"/>
<text x="408.90625" y="-13.576388888888914" dx="0" dy="0" fill="#354595" transform="matrix(1.0 0.0 0.0 -1.0 0.0 -27.15277777777783)" font-family="sans-serif" font-size="14px">
    2
</text>
</g>
	<g >
    <circle cx="807.8125" cy="-23.842592592592627" r="5" stroke-width="4" stroke="#354595" fill="#FFFFFF"/>
<text x="812.8125" y="-18.842592592592627" dx="0" dy="0" fill="#354595" transform="matrix(1.0 0.0 0.0 -1.0 0.0 -37.685185185185254)" font-family="sans-serif" font-size="14px">
    3
</text>
</g>
	<g >
    <circle cx="1210.78125" cy="-17.326388888888914" r="5" stroke-width="4" stroke="#354595" fill="#FFFFFF"/>
<text x="1215.78125" y="-12.326388888888914" dx="0" dy="0" fill="#354595" transform="matrix(1.0 0.0 0.0 -1.0 0.0 -24.65277777777783)" font-family="sans-serif" font-size="14px">
    4
</text>
</g>
	<g >
    <circle cx="1613.75" cy="0.0" r="5" stroke-width="4" stroke="#354595" fill="#FFFFFF"/>
<text x="1618.75" y="5.0" dx="0" dy="0" fill="#354595" transform="matrix(1.0 0.0 0.0 -1.0 0.0 10.0)" font-family="sans-serif" font-size="14px">
    5
</text>
</g>
	<g >
    <circle cx="411.28743489583337" cy="281.4236111111111" r="5" stroke-width="4" stroke="#354595" fill="#FFFFFF"/>
<text x="416.28743489583337" y="286.4236111111111" dx="0" dy="0" fill="#354595" transform="matrix(1.0 0.0 0.0 -1.0 0.0 572.8472222222222)" font-family="sans-serif" font-size="14px">
    6
</text>
</g>
	<g >
    <circle cx="808.2666015625" cy="274.9074074074074" r="5" stroke-width="4" stroke="#354595" fill="#FFFFFF"/>
<text x="813.2666015625" y="279.9074074074074" dx="0" dy="0" fill="#354595" transform="matrix(1.0 0.0 0.0 -1.0 0.0 559.8148148148148)" font-family="sans-serif" font-size="14px">
    7
</text>
</g>
	<g >
    <circle cx="1204.6207682291667" cy="282.6736111111111" r="5" stroke-width="4" stroke="#354595" fill="#FFFFFF"/>
<text x="1209.6207682291667" y="287.6736111111111" dx="0" dy="0" fill="#354595" transform="matrix(1.0 0.0 0.0 -1.0 0.0 575.3472222222222)" font-family="sans-serif" font-size="14px">
    8
</text>
</g>
	<g >
    <g stroke="#4A0072" stroke-width="4" fill="none">
    <line x1="150.26072565508446" y1="-121.79714186600297" x2="0.0" y2="0.0" />
<polyline points="-9.445350514895242,-11.652697269335036 0.0,0.0 -2.412667920151816,-10.916915017855105" />
</g>
<text x="143.96382531182095" y="-129.56560671222633" dx="0" dy="0" fill="#4A0072" transform="matrix(-0.7768464846223357 0.6296900343263495 0.6296900343263495 0.7768464846223357 337.3877882562292 -119.56560671222633)" font-family="sans-serif" font-size="14px">
    (-7513.036, 6089.857) with norm 9671.198
</text>
</g>
	<g >
    <g stroke="#4A0072" stroke-width="4" fill="none">
    <line x1="1613.5425771747318" y1="-178.04327315200754" x2="1613.75" y2="0.0" />
<polyline points="1598.750010179414,0.017475191353752348 1613.75,0.0 1603.7441817224912,-4.988346479292871" />
</g>
<text x="1603.5425839610077" y="-178.03162302443837" dx="0" dy="0" fill="#4A0072" transform="matrix(0.0011650127569164098 0.9999993213724079 0.9999993213724079 -0.0011650127569164098 1779.7059386017013 -1781.7805278891615)" font-family="sans-serif" font-size="14px">
    (10.371, 8902.164) with norm 8902.17
</text>
</g>
	<g >
    <g >
    <g stroke="#FFC046" stroke-width="4" fill="none">
    <line x1="361.28743489583337" y1="381.4236111111111" x2="411.28743489583337" y2="281.4236111111111" />
<polyline points="424.7038427608321,288.13181504361046 411.28743489583337,281.4236111111111 417.99563882833274,290.36788302111023" />
</g>
<text x="370.2317068058325" y="385.8957470661107" dx="0" dy="0" fill="#FFC046" transform="matrix(0.44721359549995804 -0.8944271909999159 -0.8944271909999159 -0.44721359549995804 549.8147031042653 889.6188771371337)" font-family="sans-serif" font-size="14px">
    (2500.0, -5000.0) with norm 5590.17
</text>
</g>
</g>
	<g >
    <g >
    <g stroke="#FFC046" stroke-width="4" fill="none">
    <line x1="758.2666015625" y1="374.9074074074074" x2="808.2666015625" y2="274.9074074074074" />
<polyline points="821.6830094274987,281.61561133990676 808.2666015625,274.9074074074074 814.9748054949994,283.85167931740654" />
</g>
<text x="767.2108734724992" y="379.379543362407" dx="0" dy="0" fill="#FFC046" transform="matrix(0.44721359549995804 -0.8944271909999159 -0.8944271909999159 -0.44721359549995804 763.4311195326678 1235.2574994732406)" font-family="sans-serif" font-size="14px">
    (2500.0, -5000.0) with norm 5590.17
</text>
</g>
</g>
	<g >
    <g >
    <g stroke="#FFC046" stroke-width="4" fill="none">
    <line x1="1154.6207682291667" y1="382.6736111111111" x2="1204.6207682291667" y2="282.6736111111111" />
<polyline points="1218.0371760941655,289.38181504361046 1204.6207682291667,282.6736111111111 1211.3289721616661,291.61788302111023" />
</g>
<text x="1163.5650401391658" y="387.1457470661107" dx="0" dy="0" fill="#FFC046" transform="matrix(0.44721359549995804 -0.8944271909999159 -0.8944271909999159 -0.44721359549995804 989.4766179963817 1601.0067989914419)" font-family="sans-serif" font-size="14px">
    (2500.0, -5000.0) with norm 5590.17
</text>
</g>
</g>
</svg>